<?xml version="1.0" standalone="no"?>
<!DOCTYPE svg PUBLIC "-//W3C//DTD SVG 20010904//EN"
 "http://www.w3.org/TR/2001/REC-SVG-20010904/DTD/svg10.dtd">
<svg version="1.0" xmlns="http://www.w3.org/2000/svg"
 width="500.000000pt" height="500.000000pt" viewBox="0 0 500.000000 500.000000"
 preserveAspectRatio="xMidYMid meet">

<g transform="translate(0.000000,500.000000) scale(0.100000,-0.100000)"
fill="#000000" stroke="none">
<path d="M2395 4861 c6 -11 -29 -33 -39 -24 -3 3 -6 1 -6 -5 0 -7 -11 -12 -24
-12 -13 0 -26 -4 -28 -8 -1 -5 -46 -23 -98 -41 -71 -24 -106 -42 -138 -72 -24
-21 -52 -39 -62 -39 -11 0 -20 -7 -20 -15 0 -8 -7 -15 -15 -15 -8 0 -94 -79
-191 -175 -155 -154 -176 -178 -170 -199 5 -19 1 -28 -14 -36 -11 -6 -18 -15
-15 -21 4 -5 11 -7 16 -4 5 4 9 2 9 -4 0 -5 -6 -14 -13 -18 -19 -12 -37 -62
-44 -124 -10 -91 -11 -263 -1 -281 5 -10 11 -46 13 -80 12 -150 17 -184 32
-208 l16 -25 -26 18 c-14 9 -40 17 -56 17 -24 0 -28 -3 -24 -20 3 -12 8 -18
11 -15 9 9 32 -17 32 -36 0 -23 -13 -24 -30 -4 -7 8 -19 15 -28 15 -12 0 -14
-9 -8 -47 13 -97 54 -208 71 -192 2 3 8 37 11 77 l7 72 27 -37 27 -36 -24 -23
c-17 -16 -25 -36 -28 -67 -6 -71 8 -108 58 -159 25 -25 49 -58 53 -72 5 -23 8
-24 21 -10 14 13 14 20 -2 62 -10 26 -22 51 -26 56 -13 14 -11 89 1 81 6 -3
10 -21 10 -39 0 -18 7 -41 15 -52 14 -17 15 -12 12 63 -2 45 0 88 5 95 5 9 8
7 8 -7 0 -12 7 -47 15 -79 20 -77 24 -121 24 -301 1 -103 4 -145 11 -135 5 8
10 30 10 48 0 20 5 32 13 32 16 0 14 74 -3 175 -5 33 -13 78 -16 100 -4 22 -6
58 -5 80 1 22 -2 51 -8 65 -5 14 -10 19 -10 12 -1 -21 -21 -3 -21 19 0 13 4
18 12 13 8 -5 9 -2 5 9 -4 10 -2 17 4 17 6 0 9 10 7 23 -3 18 0 23 17 25 19 1
24 -6 33 -54 29 -143 119 -255 218 -270 66 -10 192 1 238 21 81 34 156 93 156
123 0 9 6 12 16 8 8 -3 12 -2 9 4 -3 6 -2 10 2 10 15 0 66 112 66 143 0 31
-17 49 -40 40 -9 -4 -13 4 -13 28 0 19 4 39 8 45 16 25 172 49 157 24 -3 -5 0
-10 9 -10 8 0 17 6 19 13 4 9 8 8 16 -3 16 -23 13 -70 -5 -77 -23 -9 -13 -47
41 -156 56 -112 66 -124 133 -154 123 -54 285 -50 365 11 51 38 103 137 119
225 6 34 16 61 22 61 6 0 21 3 32 6 24 6 23 9 40 -121 6 -40 8 -45 15 -28 4
12 11 57 15 100 4 51 13 87 25 105 11 14 19 33 19 40 0 8 9 23 20 33 24 22 19
31 -9 15 -16 -8 -21 -8 -21 1 0 6 9 13 20 16 11 3 20 13 21 22 0 9 2 25 5 36
2 11 5 48 7 82 1 33 6 59 10 56 5 -3 8 17 7 43 -2 27 1 57 5 66 3 9 1 27 -6
39 -6 13 -13 53 -15 89 -1 36 -10 90 -19 120 -9 30 -19 66 -22 80 -2 14 -6 30
-8 35 -1 6 -4 15 -5 20 -1 6 -11 22 -21 37 -10 14 -19 29 -19 32 0 4 -9 16
-20 28 -10 12 -17 25 -14 30 3 4 -13 26 -35 48 -25 25 -38 46 -35 57 4 13 -4
22 -26 31 -16 8 -30 20 -30 27 0 14 -49 70 -62 70 -3 0 -17 14 -29 30 -32 41
-49 58 -49 48 0 -4 -7 3 -16 15 -8 12 -22 22 -30 22 -8 0 -14 5 -14 10 0 6 -7
10 -15 10 -8 0 -15 4 -15 9 0 15 -90 70 -132 82 -21 5 -38 14 -38 18 0 7 -64
22 -80 20 -11 -2 -85 32 -91 42 -8 14 -161 17 -166 3 -4 -12 -61 -6 -69 8 -3
5 -12 4 -20 -3 -11 -9 -21 -9 -40 0 -14 6 -23 7 -19 2z m415 -437 c22 -9 40
-23 40 -31 0 -11 7 -13 25 -9 17 4 31 1 42 -10 11 -10 28 -14 50 -12 25 3 34
0 39 -14 3 -11 15 -18 30 -18 14 0 38 -7 54 -15 17 -9 32 -15 35 -15 34 1 45
-2 45 -14 0 -7 10 -20 23 -29 28 -18 50 -80 34 -96 -6 -6 -9 -11 -6 -12 59
-10 65 -14 74 -51 12 -51 14 -64 19 -198 5 -131 21 -264 34 -284 20 -32 32
-89 32 -158 0 -77 0 -78 -25 -78 -14 0 -25 6 -25 14 0 7 -11 29 -25 49 -13 20
-20 39 -15 42 16 10 11 78 -8 107 -10 15 -35 40 -56 57 -46 37 -87 39 -242 16
-54 -8 -117 -15 -138 -15 -30 0 -48 -7 -69 -27 -29 -27 -30 -27 -24 -5 4 19 3
21 -9 11 -8 -6 -12 -14 -10 -17 3 -2 -1 -14 -9 -26 -8 -11 -15 -30 -15 -41 1
-19 1 -19 15 -1 13 17 14 17 11 -7 -1 -14 -10 -32 -19 -42 -9 -9 -17 -20 -17
-24 0 -4 -46 -11 -102 -16 -158 -11 -163 -11 -161 3 2 6 -2 12 -8 12 -8 0 -8
4 -2 13 7 8 5 21 -8 42 -10 17 -26 47 -35 67 -13 31 -22 38 -52 43 -21 4 -48
11 -62 16 -13 6 -58 13 -100 15 -41 3 -93 10 -115 15 -52 13 -54 13 -97 5 -36
-6 -37 -6 -47 29 -10 37 -7 76 9 106 7 12 5 19 -6 23 -8 3 -12 11 -9 16 4 6 1
18 -6 26 -19 23 -10 206 10 219 5 2 4 30 -1 61 -7 44 -6 59 4 66 24 15 43 4
40 -23 -2 -15 4 -32 14 -40 16 -13 17 -11 11 24 -5 31 -3 38 8 33 8 -3 15 -1
15 4 0 6 -4 10 -10 10 -5 0 -10 5 -10 11 0 6 7 8 15 5 9 -3 15 -1 14 7 -4 30
2 39 21 34 11 -3 20 -1 20 4 0 5 6 9 14 9 8 0 16 3 18 8 9 21 117 55 183 56
40 1 98 11 135 23 109 36 141 41 257 42 82 1 123 -3 153 -15z m-855 -164 c-3
-5 -12 -10 -18 -10 -7 0 -6 4 3 10 19 12 23 12 15 0z m1200 -704 c11 -1 34
-12 50 -25 l30 -23 -30 5 c-16 4 -48 9 -70 12 -48 6 -24 -8 41 -25 51 -13 105
-48 122 -80 9 -17 12 -52 9 -105 -4 -89 -38 -179 -91 -242 -81 -96 -357 -76
-442 31 -34 42 -67 137 -53 151 14 14 11 34 -7 53 -25 25 -15 124 16 157 13
14 30 23 38 20 8 -3 10 0 6 6 -4 8 1 9 15 4 12 -3 21 -2 21 4 0 6 15 9 34 7
19 -1 33 1 30 6 -3 4 37 8 88 9 104 1 88 16 -22 19 -36 1 -58 4 -50 6 41 11
170 21 205 16 22 -3 49 -6 60 -6z m-1093 -25 l43 -9 -42 -1 c-48 -1 -75 7 -67
20 3 5 10 7 15 4 5 -3 28 -10 51 -14z m162 0 c3 -4 -23 -8 -57 -9 -52 -1 -59
0 -46 11 17 13 95 11 103 -2z m556 -1 c-8 -5 -19 -10 -25 -10 -5 0 -3 5 5 10
8 5 20 10 25 10 6 0 3 -5 -5 -10z m-781 -14 c-2 -1 -20 -8 -39 -14 -32 -11
-33 -10 -16 3 16 12 69 23 55 11z m333 -26 c55 -16 92 -51 84 -78 -6 -17 -11
-19 -29 -12 -12 4 -21 13 -20 19 2 6 -4 8 -14 4 -11 -4 -14 -3 -9 5 4 7 2 12
-4 12 -7 0 -9 -8 -5 -20 6 -20 6 -20 -40 0 -26 11 -65 22 -88 25 -35 4 -37 3
-12 -4 38 -10 92 -38 100 -52 4 -6 -6 -4 -23 5 -40 20 -186 32 -234 18 -21 -6
-38 -7 -38 -3 0 9 60 31 83 31 9 0 17 4 17 9 0 11 -85 3 -122 -11 -15 -5 -29
-16 -32 -24 -3 -7 -12 -11 -21 -8 -8 3 -12 10 -9 15 3 5 -1 9 -8 9 -23 1 36
40 77 51 106 30 265 34 347 9z m1103 -72 c-22 -24 -41 -45 -42 -47 -2 -2 -3 0
-3 6 0 11 67 83 78 83 3 0 -12 -19 -33 -42z m-1701 -69 c-3 -5 -19 8 -37 29
-58 66 -62 78 -9 28 28 -27 49 -53 46 -57z m909 94 c-7 -2 -21 -2 -30 0 -10 3
-4 5 12 5 17 0 24 -2 18 -5z m-780 -76 c4 3 7 -14 7 -39 0 -37 4 -47 24 -58
16 -8 34 -10 53 -5 15 5 63 8 106 8 42 -1 77 3 77 8 0 4 6 6 14 3 7 -3 20 2
29 10 18 19 31 21 21 4 -5 -8 3 -9 32 -3 21 4 63 9 92 9 l54 1 4 -55 c9 -120
4 -158 -28 -183 -107 -88 -303 -108 -399 -41 -65 45 -118 158 -125 269 -3 49
-1 64 8 59 8 -5 9 -2 4 11 -5 14 -4 16 7 7 8 -7 17 -9 20 -5z m322 3 c3 -5 1
-10 -4 -10 -6 0 -11 5 -11 10 0 6 2 10 4 10 3 0 8 -4 11 -10z m253 -24 c4 -35
-25 -71 -44 -55 -9 7 -11 21 -8 38 14 56 46 67 52 17z m-158 9 c38 -20 38 -31
-1 -39 -62 -12 -69 -9 -58 24 12 34 19 36 59 15z m-206 -20 c9 -13 16 -27 16
-30 0 -9 -30 -6 -51 5 -15 9 -17 15 -9 30 14 26 24 25 44 -5z m402 -82 c-18
-33 -21 -26 -6 13 6 15 13 24 16 21 3 -3 -1 -18 -10 -34z"/>
<path d="M3291 4004 c0 -11 3 -14 6 -6 3 7 2 16 -1 19 -3 4 -6 -2 -5 -13z"/>
<path d="M2834 3434 c-61 -32 -67 -37 -70 -69 -2 -19 2 -25 17 -25 11 0 29 -5
40 -11 31 -16 140 -13 182 5 9 5 24 5 33 2 8 -3 13 -2 9 3 -8 14 5 41 21 41 8
0 14 -10 14 -25 0 -24 3 -25 57 -25 44 0 62 -5 80 -22 31 -29 32 -2 1 38 -13
15 -21 36 -20 46 3 19 -29 43 -73 54 l-30 7 30 -23 c46 -35 53 -44 30 -36 -11
4 -27 9 -35 11 -8 2 -28 9 -45 15 -16 7 -39 14 -50 16 -46 8 -55 10 -61 17
-16 15 -84 6 -130 -19z m61 -82 c-2 -2 -17 -1 -32 3 -27 6 -27 7 -8 21 18 13
21 13 32 -2 7 -10 11 -20 8 -22z"/>
<path d="M3600 3456 c0 -2 7 -6 15 -10 8 -3 15 -1 15 4 0 6 -7 10 -15 10 -8 0
-15 -2 -15 -4z"/>
<path d="M2432 2985 c0 -16 2 -22 5 -12 2 9 2 23 0 30 -3 6 -5 -1 -5 -18z"/>
<path d="M2291 2936 c-24 -38 -27 -85 -8 -107 16 -20 120 -82 183 -109 31 -13
66 -20 89 -18 43 3 62 28 22 28 -17 0 -43 17 -75 47 -44 42 -54 47 -101 49
-29 1 -58 8 -66 14 -23 19 -28 66 -10 99 23 45 -6 42 -34 -3z"/>
<path d="M3036 2815 c10 -16 35 -49 56 -72 36 -41 43 -63 39 -123 -1 -23 0
-23 10 -6 6 10 9 38 6 62 -4 38 -14 53 -67 107 -40 40 -56 51 -44 32z"/>
<path d="M2750 2810 c0 -5 4 -10 9 -10 6 0 13 5 16 10 3 6 -1 10 -9 10 -9 0
-16 -4 -16 -10z"/>
<path d="M2026 2688 c-18 -25 -20 -56 -6 -78 7 -11 10 -4 10 26 0 22 5 45 12
52 6 6 9 14 6 17 -3 4 -13 -4 -22 -17z"/>
<path d="M1862 2670 c0 -19 2 -27 5 -17 2 9 2 25 0 35 -3 9 -5 1 -5 -18z"/>
<path d="M1770 2635 c0 -8 4 -15 10 -15 5 0 7 7 4 15 -4 8 -8 15 -10 15 -2 0
-4 -7 -4 -15z"/>
<path d="M2125 2591 c-19 -7 -18 -8 5 -21 13 -7 49 -36 78 -64 39 -37 55 -47
61 -37 6 9 11 10 15 2 4 -6 3 -11 -2 -11 -5 0 -9 -7 -9 -15 0 -9 7 -14 16 -12
9 2 15 9 14 15 -2 7 2 12 7 12 6 0 8 16 4 41 l-7 42 29 -8 c16 -4 45 -8 64
-10 19 -1 40 -3 45 -4 6 -2 20 0 32 4 21 7 22 9 7 36 -15 29 -32 36 -49 20 -6
-6 -58 -4 -130 4 -137 16 -152 17 -180 6z m171 -88 c-7 -7 -26 7 -26 19 0 6 6
6 15 -2 9 -7 13 -15 11 -17z"/>
<path d="M2857 2583 c3 -7 -9 -14 -34 -19 -21 -3 -45 -11 -53 -16 -13 -8 -13
-9 1 -5 9 3 42 8 73 12 l57 7 -6 -36 c-10 -49 11 -48 54 4 18 22 39 40 47 40
8 0 14 7 14 16 0 13 -13 15 -79 13 -57 -3 -77 -7 -74 -16z"/>
<path d="M2510 2570 c0 -5 10 -10 23 -10 22 -1 22 -1 -3 -14 -23 -13 -22 -14
33 -21 32 -4 61 -5 64 -1 4 3 -5 6 -18 6 -34 0 -51 14 -43 33 5 14 0 17 -25
17 -17 0 -31 -4 -31 -10z"/>
<path d="M1860 2432 c0 -5 7 -15 15 -22 8 -7 15 -9 15 -6 0 4 -7 14 -15 22 -8
9 -15 11 -15 6z"/>
<path d="M1880 2381 c0 -6 4 -12 10 -16 5 -3 6 -13 3 -23 -3 -9 -3 -14 2 -10
13 12 95 -116 82 -129 -4 -3 -18 9 -32 26 -29 34 -59 43 -48 14 4 -10 17 -32
30 -49 13 -17 23 -37 23 -45 0 -8 11 -31 25 -51 14 -20 25 -41 25 -47 0 -5 7
-14 15 -18 8 -5 17 -28 20 -52 4 -27 17 -57 37 -82 24 -30 29 -42 20 -51 -16
-16 -15 -28 3 -28 7 0 18 8 24 17 7 14 12 15 24 4 9 -7 13 -20 10 -29 -3 -11
-2 -13 4 -5 4 6 21 15 37 19 24 6 33 3 50 -18 16 -19 38 -28 91 -37 91 -17 79
-17 235 14 180 36 338 108 315 145 -4 7 -16 4 -33 -8 -81 -55 -257 -79 -351
-48 -27 9 -55 16 -62 16 -6 0 -44 19 -84 43 -49 29 -83 57 -106 90 -19 26 -58
79 -86 116 -29 38 -53 74 -53 81 0 14 -35 67 -62 93 -10 10 -18 24 -18 32 0 8
-5 15 -11 15 -5 0 -8 -4 -5 -8 2 -4 -4 -19 -15 -32 -13 -17 -19 -20 -19 -10 0
16 -34 50 -49 50 -5 0 -11 7 -15 15 -6 16 -36 21 -36 6z"/>
<path d="M2350 2380 c20 -13 33 -13 25 0 -3 6 -14 10 -23 10 -15 0 -15 -2 -2
-10z"/>
<path d="M1800 2100 c0 -5 -8 -17 -19 -27 -17 -17 -23 -34 -38 -104 -9 -44 94
-237 181 -341 17 -20 39 -48 49 -63 11 -14 22 -23 25 -20 4 4 -2 13 -12 21
-11 8 -16 14 -12 14 4 0 -2 12 -13 26 -12 15 -21 31 -21 36 0 5 -8 21 -17 35
-10 15 -24 43 -30 63 -11 30 -10 37 5 49 15 12 15 13 0 8 -25 -9 -44 19 -22
31 14 8 15 13 7 24 -6 7 -18 58 -28 113 -9 55 -19 110 -21 123 -4 21 -34 32
-34 12z"/>
<path d="M2178 1803 c7 -3 16 -2 19 1 4 3 -2 6 -13 5 -11 0 -14 -3 -6 -6z"/>
<path d="M1505 1759 c-16 -16 -37 -29 -45 -29 -13 0 -13 -1 0 -10 12 -8 9 -10
-12 -10 -27 0 -62 -35 -52 -52 3 -4 0 -8 -5 -8 -6 0 -11 5 -11 10 0 27 -37 6
-116 -66 -18 -17 -36 -29 -39 -25 -3 3 -3 -2 1 -12 3 -10 1 -17 -5 -17 -6 0
-11 -7 -11 -15 0 -8 -5 -15 -11 -15 -5 0 -7 5 -4 10 3 6 2 10 -3 10 -16 0 -72
-31 -72 -40 0 -5 -7 -7 -15 -4 -8 4 -17 -1 -21 -10 -3 -9 -17 -16 -30 -16 -13
0 -24 -4 -24 -10 0 -5 -7 -10 -15 -10 -9 0 -12 -6 -8 -16 5 -13 2 -15 -18 -9
-24 7 -24 7 -4 -9 20 -17 20 -17 -3 -11 -13 4 -28 1 -37 -9 -21 -21 -19 -26
11 -26 14 0 23 4 19 10 -3 6 4 10 17 9 l23 0 -24 -17 c-32 -22 -60 -25 -67 -7
-9 22 -23 18 -17 -5 3 -11 10 -20 17 -20 6 0 3 -7 -7 -15 -11 -7 -24 -12 -30
-9 -7 2 -25 -8 -42 -22 -19 -17 -25 -28 -17 -31 6 -3 12 -9 12 -14 0 -12 -37
-12 -45 1 -8 12 -55 13 -55 1 0 -4 11 -6 24 -4 30 6 39 -8 26 -39 -10 -22 -10
-22 -7 -1 1 12 -2 22 -8 21 -21 -1 -35 -11 -35 -22 0 -8 -12 -11 -32 -9 -27 3
-29 1 -13 -6 20 -9 20 -10 -1 -10 -28 -1 -36 -11 -23 -28 17 -19 35 -16 47 10
6 12 11 16 11 9 1 -7 -6 -24 -15 -37 -23 -35 -11 -59 24 -50 29 7 25 -2 -10
-19 -12 -6 -23 -18 -25 -26 -4 -13 -3 -13 9 0 7 8 20 16 28 17 8 1 26 5 39 9
17 5 22 4 17 -4 -5 -8 -2 -10 8 -6 9 3 16 10 16 15 0 5 10 9 21 9 12 0 27 7
33 16 6 8 26 16 43 16 44 1 31 18 -15 19 -24 1 -29 3 -14 6 13 3 19 9 16 15
-5 7 3 9 22 4 68 -15 97 -16 112 -4 13 11 15 10 10 -10 -5 -19 -4 -21 8 -11 8
6 14 18 14 26 0 9 6 13 15 9 13 -4 14 -2 5 14 -8 16 -8 20 4 20 21 0 30 18 17
34 -6 7 -8 16 -4 19 25 26 32 -26 7 -54 -12 -13 -13 -22 -5 -36 10 -17 10 -16
11 5 0 12 6 22 13 22 7 0 23 9 35 20 12 11 28 17 37 14 9 -4 15 -3 13 2 -2 5
2 10 7 11 6 1 9 -4 8 -10 -2 -9 15 -13 55 -14 44 0 50 1 27 7 l-30 8 32 1 c17
0 37 3 45 4 7 2 10 2 6 0 -5 -3 -8 -10 -8 -16 0 -8 4 -7 12 1 7 7 22 12 35 12
13 0 23 4 23 10 0 5 7 7 15 4 11 -4 13 -2 10 9 -7 18 35 28 60 15 11 -7 21 -5
32 4 13 10 17 10 20 1 3 -8 14 -11 31 -7 21 4 24 3 12 -5 -8 -6 -23 -11 -32
-11 -10 0 -27 -9 -38 -20 -11 -11 -26 -17 -36 -13 -14 5 -14 3 -3 -14 14 -23
39 -20 65 8 25 28 34 23 34 -16 0 -19 -5 -35 -11 -35 -5 0 -7 -5 -4 -11 5 -6
12 -4 21 8 12 17 13 16 14 -7 0 -19 2 -22 9 -10 6 8 7 19 3 25 -3 5 2 4 11 -4
15 -12 17 -11 17 3 0 10 -9 16 -25 16 -16 0 -25 6 -25 16 0 11 6 14 21 9 18
-6 20 -4 14 14 -4 13 -2 21 5 21 6 0 8 5 5 10 -8 13 19 40 39 40 10 0 16 -9
16 -25 0 -14 5 -25 10 -25 6 0 10 -7 10 -15 0 -8 -5 -15 -12 -15 -6 0 -9 -3
-6 -6 11 -10 48 16 48 34 0 10 7 27 16 38 15 19 16 19 9 -1 -20 -58 -23 -75
-13 -81 6 -4 15 0 20 7 7 10 7 7 3 -8 -4 -14 -2 -23 4 -23 6 0 11 8 12 18 0
14 2 14 9 -3 8 -19 9 -19 9 3 1 12 -4 22 -10 22 -5 0 -9 8 -7 18 3 24 -23 112
-34 112 -5 0 -6 5 -3 10 3 6 -3 23 -14 39 -12 16 -21 34 -21 41 0 7 -7 10 -15
6 -9 -3 -15 0 -15 10 0 9 5 12 11 8 7 -4 10 -3 7 2 -20 44 -34 70 -39 74 -10
8 -79 218 -79 239 0 41 -64 41 -105 0z m-120 -309 c-3 -5 -10 -10 -16 -10 -5
0 -9 5 -9 10 0 6 7 10 16 10 8 0 12 -4 9 -10z m-264 -23 c-10 -9 -11 -8 -5 6
3 10 9 15 12 12 3 -3 0 -11 -7 -18z m99 -1 c0 -3 -4 -8 -10 -11 -5 -3 -10 -1
-10 4 0 6 5 11 10 11 6 0 10 -2 10 -4z m100 -16 c0 -5 -5 -10 -11 -10 -5 0 -7
5 -4 10 3 6 8 10 11 10 2 0 4 -4 4 -10z m56 -37 c-10 -10 -19 5 -10 18 6 11 8
11 12 0 2 -7 1 -15 -2 -18z m54 18 c0 -6 -4 -13 -10 -16 -5 -3 -10 1 -10 9 0
9 5 16 10 16 6 0 10 -4 10 -9z m-120 -21 c0 -5 -4 -10 -10 -10 -5 0 -10 5 -10
10 0 6 5 10 10 10 6 0 10 -4 10 -10z m40 0 c0 -5 -5 -10 -11 -10 -5 0 -7 5 -4
10 3 6 8 10 11 10 2 0 4 -4 4 -10z m-320 -16 c0 -3 -7 -12 -16 -21 -11 -12
-18 -13 -27 -4 -8 8 -7 11 6 11 9 0 17 5 17 10 0 6 5 10 10 10 6 0 10 -3 10
-6z m200 -15 c0 -11 -4 -18 -10 -14 -5 3 -7 12 -3 20 7 21 13 19 13 -6z m385
11 c-3 -6 2 -14 12 -18 10 -4 19 -17 20 -28 2 -17 -4 -23 -28 -26 -35 -5 -49
7 -19 17 28 9 25 28 -2 20 -13 -3 -18 -3 -12 2 6 4 13 16 17 26 3 9 9 17 12
17 4 0 3 -5 0 -10z m-328 -32 c-3 -8 -6 -5 -6 6 -1 11 2 17 5 13 3 -3 4 -12 1
-19z m210 -5 c-7 -6 -46 10 -41 18 3 5 14 3 24 -3 11 -7 18 -13 17 -15z m-302
7 c-3 -5 -12 -10 -18 -10 -7 0 -6 4 3 10 19 12 23 12 15 0z m-175 -20 c0 -5
-4 -10 -10 -10 -5 0 -10 5 -10 10 0 6 5 10 10 10 6 0 10 -4 10 -10z m360 0 c0
-5 -4 -10 -10 -10 -5 0 -10 5 -10 10 0 6 5 10 10 10 6 0 10 -4 10 -10z m-395
-10 c3 -5 1 -10 -4 -10 -6 0 -11 5 -11 10 0 6 2 10 4 10 3 0 8 -4 11 -10z
m422 -32 c-3 -8 -6 -5 -6 6 -1 11 2 17 5 13 3 -3 4 -12 1 -19z m320 -10 c-3
-7 -5 -2 -5 12 0 14 2 19 5 13 2 -7 2 -19 0 -25z m28 22 c3 -5 1 -10 -4 -10
-6 0 -11 5 -11 10 0 6 2 10 4 10 3 0 8 -4 11 -10z m-775 -10 c0 -5 -5 -10 -11
-10 -5 0 -7 5 -4 10 3 6 8 10 11 10 2 0 4 -4 4 -10z m-87 -26 c-3 -9 -9 -12
-12 -7 -3 4 -10 11 -15 16 -5 4 0 7 12 7 15 0 20 -4 15 -16z m112 6 c-3 -5 1
-10 9 -10 9 0 16 -4 16 -10 0 -5 -9 -10 -21 -10 -11 0 -17 5 -14 10 3 6 0 10
-7 10 -9 0 -9 3 2 10 19 12 23 12 15 0z m275 -3 c0 -8 -7 -14 -15 -14 -16 0
-19 9 -8 20 11 11 23 8 23 -6z m-110 -12 c0 -8 -7 -15 -15 -15 -26 0 -18 20
13 29 1 1 2 -6 2 -14z m-153 -41 c-3 -3 -12 -4 -19 -1 -8 3 -5 6 6 6 11 1 17
-2 13 -5z m-129 -29 c-3 -3 -13 -2 -22 1 -14 5 -15 9 -4 15 13 8 36 -6 26 -16z
m47 15 c3 -5 -1 -10 -9 -10 -9 0 -16 5 -16 10 0 6 4 10 9 10 6 0 13 -4 16 -10z
m-75 -30 c0 -5 -4 -10 -10 -10 -5 0 -19 -9 -30 -20 -11 -11 -20 -24 -20 -30 0
-5 -6 -10 -14 -10 -9 0 -14 9 -13 20 1 11 7 20 15 20 7 0 10 5 7 10 -11 17 5
30 36 30 16 0 29 -4 29 -10z m-103 -46 c-7 -7 -37 7 -37 17 0 6 9 5 21 -1 11
-7 19 -14 16 -16z"/>
<path d="M800 1130 c0 -5 5 -10 10 -10 6 0 10 5 10 10 0 6 -4 10 -10 10 -5 0
-10 -4 -10 -10z"/>
<path d="M3532 1761 c-11 -18 -23 -50 -26 -72 -4 -22 -13 -42 -20 -45 -8 -3
-12 -14 -9 -25 3 -10 0 -19 -6 -19 -5 0 -8 -7 -5 -15 4 -8 1 -15 -5 -15 -6 0
-11 -6 -11 -13 0 -7 -9 -30 -20 -52 -11 -22 -20 -43 -20 -48 0 -5 -9 -16 -19
-25 -11 -10 -29 -39 -40 -67 l-21 -50 21 25 c11 14 18 19 14 13 -10 -20 4 -36
20 -23 17 14 29 -3 20 -30 -8 -24 -25 -27 -25 -4 0 26 -17 6 -22 -27 -5 -29
-3 -31 24 -25 26 5 28 4 13 -10 -16 -17 -12 -34 9 -34 17 0 28 53 13 62 -6 4
-8 10 -4 15 5 4 12 1 18 -7 7 -12 10 -11 15 8 7 24 19 28 30 10 4 -6 2 -14 -4
-16 -7 -2 -12 -10 -12 -18 0 -9 -4 -12 -10 -9 -5 3 -10 1 -10 -4 0 -6 6 -11
13 -11 8 0 7 -3 -3 -10 -27 -17 -4 -20 29 -4 33 16 58 11 31 -6 -13 -9 -13
-10 0 -10 9 0 6 -6 -9 -16 -18 -13 -28 -14 -48 -5 -14 7 -28 9 -32 5 -3 -4 0
-9 7 -11 6 -3 12 -17 12 -31 0 -16 -3 -22 -8 -15 -4 6 -21 14 -37 18 l-30 7
35 -31 c29 -26 32 -33 20 -41 -8 -5 -20 -10 -27 -10 -9 0 -10 -7 -4 -22 11
-29 68 -34 63 -6 -2 12 2 16 13 12 8 -4 17 1 21 10 8 22 24 20 24 -3 0 -10 7
-24 15 -31 12 -10 16 -8 24 11 l10 24 7 -22 c8 -27 24 -21 25 10 1 17 2 18 6
5 3 -11 14 -18 26 -17 21 0 21 1 2 9 -11 5 -16 9 -11 9 5 1 2 9 -5 19 -13 16
-12 16 6 1 11 -9 26 -14 34 -11 8 3 11 0 7 -7 -4 -6 0 -11 11 -12 14 0 15 -2
3 -7 -24 -11 -22 -32 2 -31 13 0 17 3 10 6 -8 3 -10 9 -4 16 5 7 12 25 16 40
6 24 8 26 21 13 8 -8 15 -26 15 -40 0 -19 4 -24 16 -19 10 4 17 -1 20 -14 4
-15 12 -19 30 -15 17 3 24 0 24 -11 0 -23 15 -28 45 -17 23 9 28 7 32 -11 3
-11 17 -25 31 -30 19 -7 22 -13 14 -21 -17 -17 -15 -38 4 -38 9 0 14 6 11 13
-3 7 3 19 14 25 15 10 17 9 13 -3 -4 -8 -2 -15 4 -15 5 0 12 9 15 20 3 11 13
20 24 20 15 0 16 -2 3 -11 -12 -8 -12 -12 -2 -16 9 -3 10 -9 2 -17 -7 -10 -3
-16 16 -25 31 -14 42 -8 25 13 -8 10 -9 16 -1 21 5 3 10 -2 10 -11 0 -16 1
-16 15 2 11 14 14 15 14 4 0 -8 -6 -24 -14 -34 -8 -11 -15 -28 -15 -38 0 -10
-5 -18 -11 -18 -6 0 -9 6 -6 14 6 15 -13 26 -41 26 -16 -1 -16 -1 0 -11 10 -5
15 -16 11 -25 -4 -12 0 -15 23 -12 19 2 30 10 33 23 3 19 37 55 50 55 4 0 7
-9 7 -20 0 -13 -5 -19 -13 -16 -7 3 -13 0 -13 -7 0 -22 18 -40 42 -43 13 -2
17 0 11 2 -7 3 -13 19 -13 35 0 25 4 29 28 28 15 0 21 -3 14 -6 -6 -2 -10 -9
-6 -14 3 -5 -3 -9 -12 -9 -16 0 -16 -1 1 -14 11 -8 16 -19 12 -30 -4 -9 -2
-16 4 -16 5 0 13 10 17 21 8 20 10 20 24 5 21 -20 28 -20 28 -1 0 8 5 15 11
15 7 0 8 11 4 30 -4 20 -3 30 5 30 7 0 10 -7 7 -15 -4 -8 -2 -17 2 -20 10 -6
-10 -55 -21 -55 -5 0 -8 -16 -8 -35 0 -30 3 -35 23 -34 16 1 18 2 5 6 -26 7
-22 25 5 21 26 -4 37 -46 15 -62 -14 -12 -20 -78 -6 -70 4 3 8 16 8 30 0 13 4
24 9 24 5 0 12 8 14 18 4 16 5 16 6 0 1 -23 18 -23 25 -1 3 10 3 -2 1 -27 -2
-25 -2 -37 1 -28 6 21 15 23 32 6 9 -9 18 -5 38 15 31 31 33 31 57 12 19 -14
46 -10 59 9 5 7 8 6 8 -4 1 -9 6 -5 15 10 14 25 14 25 15 3 0 -21 -10 -28 -33
-24 -5 1 -7 -6 -5 -16 2 -10 10 -17 16 -16 7 2 12 -6 12 -18 0 -13 -6 -20 -17
-18 -10 1 -29 -3 -43 -10 l-25 -11 28 5 c24 5 28 3 23 -12 -4 -14 -1 -19 13
-20 11 -1 21 6 24 18 3 10 12 19 21 19 9 0 16 6 16 14 0 8 5 18 12 22 6 4 8 3
4 -4 -3 -5 -1 -12 5 -14 7 -2 7 -12 0 -30 -10 -26 1 -49 16 -34 4 3 1 6 -7 6
-10 0 -10 3 0 15 7 8 10 25 6 40 -4 14 -2 25 3 25 5 0 12 8 14 18 3 9 4 -2 2
-25 -2 -24 -2 -43 1 -43 7 0 28 53 25 64 -1 5 3 12 8 16 6 3 12 17 13 30 2 14
6 27 9 30 5 5 103 206 118 245 31 76 31 72 7 94 -12 12 -26 21 -30 21 -4 0
-19 9 -33 20 -14 11 -33 20 -42 20 -9 0 -28 13 -44 29 -15 15 -48 37 -72 47
-25 10 -45 22 -45 26 0 4 -7 4 -17 1 -11 -4 -14 -3 -9 5 4 7 1 12 -6 12 -7 0
-31 12 -52 26 -21 15 -35 20 -30 13 10 -17 -21 5 -47 33 -9 10 -20 18 -25 18
-5 0 -26 9 -46 19 -19 11 -39 17 -42 14 -3 -4 -6 -2 -6 4 0 6 -13 16 -30 23
-16 7 -30 16 -30 20 0 5 -12 13 -27 19 -35 14 -83 42 -101 59 -7 6 -20 12 -28
12 -8 0 -14 5 -14 11 0 5 -4 8 -9 4 -6 -3 -19 4 -30 16 -12 13 -26 19 -36 15
-9 -3 -14 -2 -11 3 7 11 -72 54 -86 45 -6 -4 -8 -3 -5 3 4 6 -7 16 -23 23 -17
7 -30 17 -30 22 0 5 -4 6 -10 3 -5 -3 -10 -2 -10 3 0 10 -56 37 -76 37 -6 0
-19 8 -28 18 -10 9 -24 17 -33 17 -9 0 -24 9 -34 21 -10 11 -22 18 -27 15 -5
-3 -17 3 -27 14 -10 11 -23 20 -28 20 -5 0 -15 8 -22 17 -12 16 -15 14 -33
-16z m93 -209 c-3 -3 -11 0 -18 7 -9 10 -8 11 6 5 10 -3 15 -9 12 -12z m65
-205 c-14 -8 -27 -12 -30 -10 -7 6 23 23 40 23 8 0 4 -6 -10 -13z m-130 -33
c0 -2 -9 -4 -20 -4 -11 0 -20 4 -20 9 0 5 9 7 20 4 11 -3 20 -7 20 -9z m-36
-54 c9 7 19 10 23 6 9 -8 2 -13 -30 -21 -22 -6 -27 -4 -27 11 0 15 2 16 9 5 8
-12 12 -13 25 -1z m106 -45 c0 -8 -4 -15 -9 -15 -13 0 -22 16 -14 24 11 11 23
6 23 -9z m155 -25 c-3 -5 -10 -10 -16 -10 -5 0 -9 5 -9 10 0 6 7 10 16 10 8 0
12 -4 9 -10z m-230 -19 c7 -12 -12 -24 -25 -16 -11 7 -4 25 10 25 5 0 11 -4
15 -9z m249 -26 c-4 -8 -12 -15 -20 -15 -20 0 -17 18 4 23 9 3 18 5 19 6 1 0
0 -6 -3 -14z m-149 -5 c-3 -5 -10 -10 -16 -10 -5 0 -9 5 -9 10 0 6 7 10 16 10
8 0 12 -4 9 -10z m89 -21 c14 -7 22 -17 19 -25 -7 -19 -23 -18 -23 1 0 9 -10
15 -26 15 -14 0 -23 4 -19 10 8 13 18 13 49 -1z m76 -9 c0 -5 -5 -10 -11 -10
-5 0 -7 5 -4 10 3 6 8 10 11 10 2 0 4 -4 4 -10z m60 0 c0 -5 -2 -10 -4 -10 -3
0 -8 5 -11 10 -3 6 -1 10 4 10 6 0 11 -4 11 -10z m-25 -38 c-1 -1 -10 0 -19 4
-13 5 -14 9 -4 21 10 13 13 13 19 -4 3 -10 5 -19 4 -21z m-395 8 c0 -5 -4 -10
-10 -10 -5 0 -10 -7 -10 -15 0 -16 -12 -20 -23 -8 -8 7 21 43 35 43 4 0 8 -4
8 -10z m596 -47 c-11 -11 -17 4 -9 23 7 18 8 18 11 1 2 -10 1 -21 -2 -24z
m-186 23 c0 -11 -19 -15 -25 -6 -3 5 1 10 9 10 9 0 16 -2 16 -4z m67 -26 c1
-11 -2 -20 -8 -20 -5 0 -9 9 -9 20 0 11 4 20 8 20 4 0 8 -9 9 -20z m-64 -19
c7 -28 -1 -32 -24 -13 -24 21 -24 32 0 32 10 0 21 -9 24 -19z m112 -11 c-4 -6
10 -10 34 -10 23 0 41 -4 41 -9 0 -5 -19 -7 -42 -4 -24 3 -60 5 -80 4 -49 -2
-50 14 -1 17 21 2 39 5 42 7 8 9 12 5 6 -5z m-30 -40 c-29 -7 -29 -8 10 -9 34
-2 37 -4 20 -12 -14 -7 -30 -7 -48 0 -39 15 -33 31 11 30 37 -1 37 -1 7 -9z
m135 -36 c0 -8 -7 -14 -15 -14 -17 0 -18 2 -9 24 7 18 24 12 24 -10z m100 16
c0 -5 -5 -10 -11 -10 -5 0 -7 5 -4 10 3 6 8 10 11 10 2 0 4 -4 4 -10z m-53
-35 c0 -8 -4 -15 -8 -15 -4 0 -9 7 -13 15 -3 9 0 15 8 15 7 0 13 -7 13 -15z
m73 -25 c13 -8 13 -10 -2 -10 -9 0 -20 5 -23 10 -8 13 5 13 25 0z m31 -39 c-7
-5 -10 -14 -7 -20 4 -6 0 -11 -8 -11 -9 0 -16 4 -16 8 0 12 22 32 35 32 5 0 4
-4 -4 -9z m243 -36 c3 -9 0 -15 -9 -15 -8 0 -15 7 -15 15 0 8 4 15 9 15 5 0
11 -7 15 -15z m76 -15 c0 -5 -7 -10 -15 -10 -8 0 -15 5 -15 10 0 6 7 10 15 10
8 0 15 -4 15 -10z m25 -50 c4 0 3 5 0 10 -3 6 0 10 8 10 13 0 13 -4 4 -25 -12
-25 -12 -25 -29 -5 -9 11 -21 20 -27 20 -6 0 -11 5 -11 11 0 7 10 5 25 -5 13
-9 27 -16 30 -16z m-225 4 c0 -2 -11 -4 -25 -4 -14 0 -25 4 -25 9 0 4 11 6 25
3 14 -2 25 -6 25 -8z m120 6 c0 -13 -11 -13 -30 0 -12 8 -11 10 8 10 12 0 22
-4 22 -10z m267 -12 c-3 -8 -6 -5 -6 6 -1 11 2 17 5 13 3 -3 4 -12 1 -19z
m-92 2 c-3 -5 -10 -10 -16 -10 -5 0 -9 5 -9 10 0 6 7 10 16 10 8 0 12 -4 9
-10z m-234 -48 c-7 -2 -18 1 -23 6 -8 8 -4 9 13 5 13 -4 18 -8 10 -11z m104
-2 c-3 -5 2 -13 11 -18 11 -6 13 -11 5 -16 -15 -10 -44 21 -37 40 3 8 10 12
16 9 6 -4 8 -10 5 -15z m115 10 c0 -5 -4 -10 -10 -10 -5 0 -10 5 -10 10 0 6 5
10 10 10 6 0 10 -4 10 -10z m54 -25 c3 -8 1 -15 -4 -15 -6 0 -10 7 -10 15 0 8
2 15 4 15 2 0 6 -7 10 -15z m-264 -25 c0 -5 -7 -10 -15 -10 -8 0 -15 5 -15 10
0 6 7 10 15 10 8 0 15 -4 15 -10z m209 -3 c10 3 21 -2 24 -10 4 -10 -2 -17
-16 -21 -25 -6 -23 -8 -31 24 -3 14 -3 20 0 14 3 -7 13 -10 23 -7z m-27 -59
c-9 -9 -12 -7 -12 12 0 19 3 21 12 12 9 -9 9 -15 0 -24z"/>
<path d="M885 1330 c3 -5 8 -10 11 -10 2 0 4 5 4 10 0 6 -5 10 -11 10 -5 0 -7
-4 -4 -10z"/>
<path d="M1673 1237 c0 -31 22 -31 23 0 1 13 -4 23 -11 23 -7 0 -12 -10 -12
-23z"/>
<path d="M3340 1219 c0 -5 5 -7 10 -4 6 3 10 8 10 11 0 2 -4 4 -10 4 -5 0 -10
-5 -10 -11z"/>
<path d="M3348 1203 c-10 -2 -18 -9 -18 -14 0 -14 16 -11 30 6 7 8 11 14 9 14
-2 -1 -12 -3 -21 -6z"/>
<path d="M1742 1173 c-10 -4 -10 -8 -1 -19 8 -10 8 -14 0 -14 -13 0 -45 -59
-36 -68 7 -8 52 44 61 70 7 23 -5 38 -24 31z"/>
<path d="M1695 1160 c3 -5 11 -10 16 -10 6 0 7 5 4 10 -3 6 -11 10 -16 10 -6
0 -7 -4 -4 -10z"/>
<path d="M1836 1134 c-4 -14 -5 -28 -3 -31 3 -2 8 8 11 23 4 14 5 28 3 31 -3
2 -8 -8 -11 -23z"/>
<path d="M1411 1139 c-13 -5 -22 -11 -20 -14 8 -7 49 7 49 16 0 5 -1 9 -2 8
-2 0 -14 -5 -27 -10z"/>
<path d="M1780 1135 c0 -8 -4 -15 -9 -15 -16 0 -19 -38 -4 -44 24 -9 26 -7 12
11 -13 15 -11 16 14 11 15 -3 27 -4 27 -2 0 1 -4 14 -10 28 -10 28 -30 35 -30
11z"/>
<path d="M590 1131 c0 -12 37 -24 50 -16 5 3 10 0 10 -8 0 -10 -10 -13 -41
-10 -39 4 -40 3 -34 -19 7 -23 7 -23 -9 -3 -14 18 -15 18 -16 2 0 -10 -7 -20
-15 -23 -10 -4 -13 -14 -8 -33 6 -25 5 -25 -13 -10 -13 11 -26 14 -39 9 -18
-7 -18 -8 7 -15 19 -5 25 -11 21 -23 -5 -12 -1 -14 25 -9 20 4 32 2 35 -6 3
-9 12 -7 35 6 16 9 37 14 45 11 12 -4 14 0 10 15 -3 12 -1 21 6 21 6 0 11 -7
11 -15 0 -8 5 -15 12 -15 6 0 9 3 6 6 -4 3 -2 19 2 35 7 22 5 29 -6 29 -8 0
-14 5 -14 11 0 6 6 9 14 6 23 -9 7 32 -18 45 -27 15 -76 20 -76 9z m70 -92 c0
-4 -6 -9 -13 -12 -10 -4 -13 2 -9 20 3 18 7 21 13 11 5 -7 9 -16 9 -19z m-44
6 c-11 -8 -27 -15 -35 -15 -9 1 -2 7 14 15 39 18 44 18 21 0z m-29 -51 c-3 -3
-12 -4 -19 -1 -8 3 -5 6 6 6 11 1 17 -2 13 -5z"/>
<path d="M1670 1128 c0 -12 38 -10 45 2 4 6 -5 9 -19 8 -15 -1 -26 -6 -26 -10z"/>
<path d="M1860 1115 c-7 -9 -8 -15 -2 -15 5 0 12 7 16 15 3 8 4 15 2 15 -2 0
-9 -7 -16 -15z"/>
<path d="M1565 1110 c3 -5 12 -10 20 -10 8 0 17 5 20 10 4 6 -5 10 -20 10 -15
0 -24 -4 -20 -10z"/>
<path d="M1642 1100 c-6 -11 -8 -21 -3 -25 5 -3 13 4 16 16 9 28 2 33 -13 9z"/>
<path d="M2725 1110 c-3 -6 1 -7 9 -4 18 7 21 14 7 14 -6 0 -13 -4 -16 -10z"/>
<path d="M3285 1110 c-3 -5 1 -10 10 -10 9 0 13 5 10 10 -3 6 -8 10 -10 10 -2
0 -7 -4 -10 -10z"/>
<path d="M3365 1111 c-3 -6 0 -11 9 -11 8 0 17 -6 20 -12 3 -7 5 -4 3 6 -2 22
-22 32 -32 17z"/>
<path d="M1291 1094 c0 -11 3 -14 6 -6 3 7 2 16 -1 19 -3 4 -6 -2 -5 -13z"/>
<path d="M1487 1099 c7 -7 15 -10 18 -7 3 3 -2 9 -12 12 -14 6 -15 5 -6 -5z"/>
<path d="M1540 1092 c0 -6 -10 -13 -22 -15 -13 -2 -6 -4 15 -4 21 0 36 5 34
11 -4 13 -27 20 -27 8z"/>
<path d="M492 1074 c-14 -16 -5 -18 17 -5 7 5 9 11 5 14 -5 3 -15 -1 -22 -9z"/>
<path d="M1418 1083 c7 -3 16 -2 19 1 4 3 -2 6 -13 5 -11 0 -14 -3 -6 -6z"/>
<path d="M1867 1070 c-3 -11 -2 -20 3 -20 4 0 10 9 13 20 3 11 2 20 -3 20 -4
0 -10 -9 -13 -20z"/>
<path d="M2541 1073 c-6 -12 -6 -25 1 -37 6 -10 17 -51 25 -90 9 -42 23 -78
34 -89 10 -10 19 -29 19 -42 0 -16 6 -25 15 -25 23 0 19 63 -5 85 -11 10 -23
27 -26 39 -4 11 -13 26 -21 32 -10 7 -15 29 -15 72 0 65 -10 85 -27 55z"/>
<path d="M3315 1080 c-19 -8 -19 -9 2 -9 12 -1 25 4 28 9 7 12 -2 12 -30 0z"/>
<path d="M888 1073 c6 -2 18 -2 25 0 6 3 1 5 -13 5 -14 0 -19 -2 -12 -5z"/>
<path d="M1590 1070 c-9 -6 -10 -10 -3 -10 6 0 15 5 18 10 8 12 4 12 -15 0z"/>
<path d="M1830 1060 c0 -11 2 -20 4 -20 2 0 6 9 9 20 3 11 1 20 -4 20 -5 0 -9
-9 -9 -20z"/>
<path d="M1379 1065 c-1 -3 -2 -8 -3 -12 -1 -5 -5 -14 -9 -20 -5 -9 -3 -13 7
-13 13 0 36 28 36 44 0 7 -30 8 -31 1z"/>
<path d="M1555 1050 c-3 -5 -1 -10 4 -10 6 0 11 5 11 10 0 6 -2 10 -4 10 -3 0
-8 -4 -11 -10z"/>
<path d="M1691 1051 c-7 -5 -12 -14 -10 -20 2 -6 10 -2 17 9 14 22 13 23 -7
11z"/>
<path d="M1191 1041 c-8 -6 -9 -11 -3 -15 6 -3 14 -1 17 5 9 14 2 20 -14 10z"/>
<path d="M1448 1043 c7 -3 16 -2 19 1 4 3 -2 6 -13 5 -11 0 -14 -3 -6 -6z"/>
<path d="M740 1029 c-13 -9 -13 -10 1 -6 9 3 22 0 28 -6 8 -8 11 -7 11 6 0 19
-18 22 -40 6z"/>
<path d="M1555 1020 c-3 -5 -1 -10 4 -10 6 0 11 5 11 10 0 6 -2 10 -4 10 -3 0
-8 -4 -11 -10z"/>
<path d="M3620 1015 c0 -8 5 -15 10 -15 6 0 10 7 10 15 0 8 -4 15 -10 15 -5 0
-10 -7 -10 -15z"/>
<path d="M1875 1010 c3 -6 -1 -10 -9 -10 -9 0 -16 -8 -16 -17 0 -11 3 -14 8
-7 4 6 15 15 26 21 16 9 17 11 2 16 -10 4 -15 3 -11 -3z"/>
<path d="M445 999 c4 -5 -1 -17 -11 -24 -18 -13 -18 -14 -1 -15 22 0 23 -20 1
-20 -12 0 -8 -6 11 -22 19 -14 30 -18 32 -11 3 7 10 10 16 8 13 -5 26 2 44 26
11 13 9 16 -17 16 -16 0 -31 -6 -34 -14 -3 -7 -11 -13 -17 -13 -8 0 -8 4 1 15
10 12 10 15 -4 15 -9 0 -16 5 -16 11 0 6 7 9 15 6 26 -11 25 10 -1 22 -17 7
-23 8 -19 0z"/>
<path d="M1336 995 c7 -17 30 -20 39 -6 3 5 1 12 -4 15 -5 4 -12 0 -14 -6 -4
-10 -6 -10 -6 0 -1 6 -5 12 -11 12 -5 0 -7 -7 -4 -15z"/>
<path d="M1400 995 c-9 -11 -10 -15 -1 -15 7 0 19 7 27 15 13 13 13 15 1 15
-8 0 -20 -7 -27 -15z"/>
<path d="M3734 979 c-1 -22 3 -29 17 -29 11 0 19 5 19 10 0 6 -4 10 -10 10 -5
0 -10 6 -10 14 0 29 -15 24 -16 -5z"/>
<path d="M1896 973 c-6 -14 -5 -15 5 -6 7 7 10 15 7 18 -3 3 -9 -2 -12 -12z"/>
<path d="M3360 974 c0 -8 5 -12 10 -9 6 3 10 10 10 16 0 5 -4 9 -10 9 -5 0
-10 -7 -10 -16z"/>
<path d="M3635 980 c-3 -5 -1 -10 4 -10 6 0 11 5 11 10 0 6 -2 10 -4 10 -3 0
-8 -4 -11 -10z"/>
<path d="M3791 974 c0 -11 3 -14 6 -6 3 7 2 16 -1 19 -3 4 -6 -2 -5 -13z"/>
<path d="M3482 960 c0 -14 2 -19 5 -12 2 6 2 18 0 25 -3 6 -5 1 -5 -13z"/>
<path d="M1246 955 c-9 -26 -7 -32 5 -12 6 10 9 21 6 23 -2 3 -7 -2 -11 -11z"/>
<path d="M1350 958 c0 -5 4 -8 9 -8 5 0 12 -8 14 -17 4 -17 5 -17 6 0 0 9 6
17 11 17 6 0 10 3 10 8 0 4 -11 7 -25 7 -14 0 -25 -3 -25 -7z"/>
<path d="M1770 955 c0 -8 5 -15 10 -15 6 0 10 7 10 15 0 8 -4 15 -10 15 -5 0
-10 -7 -10 -15z"/>
<path d="M3305 960 c3 -5 16 -10 28 -9 21 0 21 1 2 9 -28 12 -37 12 -30 0z"/>
<path d="M1442 935 c0 -16 2 -22 5 -12 2 9 2 23 0 30 -3 6 -5 -1 -5 -18z"/>
<path d="M3650 950 c0 -5 5 -10 11 -10 5 0 7 5 4 10 -3 6 -8 10 -11 10 -2 0
-4 -4 -4 -10z"/>
<path d="M3360 940 c0 -5 5 -10 11 -10 5 0 7 5 4 10 -3 6 -8 10 -11 10 -2 0
-4 -4 -4 -10z"/>
<path d="M3598 933 c6 -2 18 -2 25 0 6 3 1 5 -13 5 -14 0 -19 -2 -12 -5z"/>
<path d="M400 916 c0 -9 4 -16 9 -16 5 0 12 -8 14 -17 4 -14 5 -14 6 3 0 12
-6 27 -14 34 -12 10 -15 10 -15 -4z"/>
<path d="M1332 910 c0 -14 2 -19 5 -12 2 6 2 18 0 25 -3 6 -5 1 -5 -13z"/>
<path d="M3572 916 c7 -8 15 -12 17 -11 5 6 -10 25 -20 25 -5 0 -4 -6 3 -14z"/>
<path d="M3703 896 c7 -15 16 -21 21 -16 5 5 2 15 -7 24 -22 23 -27 20 -14 -8z"/>
<path d="M441 894 c0 -11 3 -14 6 -6 3 7 2 16 -1 19 -3 4 -6 -2 -5 -13z"/>
<path d="M1860 900 c0 -6 7 -10 15 -10 8 0 15 2 15 4 0 2 -7 6 -15 10 -8 3
-15 1 -15 -4z"/>
<path d="M3220 899 c0 -5 5 -7 10 -4 6 3 10 8 10 11 0 2 -4 4 -10 4 -5 0 -10
-5 -10 -11z"/>
<path d="M3805 900 c3 -5 8 -10 11 -10 2 0 4 5 4 10 0 6 -5 10 -11 10 -5 0 -7
-4 -4 -10z"/>
<path d="M3848 903 c7 -3 16 -2 19 1 4 3 -2 6 -13 5 -11 0 -14 -3 -6 -6z"/>
<path d="M3895 900 c-3 -5 1 -10 10 -10 9 0 13 5 10 10 -3 6 -8 10 -10 10 -2
0 -7 -4 -10 -10z"/>
<path d="M1297 893 c-4 -3 -7 -11 -7 -17 0 -6 5 -5 12 2 6 6 9 14 7 17 -3 3
-9 2 -12 -2z"/>
<path d="M1411 884 c0 -11 3 -14 6 -6 3 7 2 16 -1 19 -3 4 -6 -2 -5 -13z"/>
<path d="M1971 884 c0 -11 3 -14 6 -6 3 7 2 16 -1 19 -3 4 -6 -2 -5 -13z"/>
<path d="M3380 890 c0 -5 5 -10 10 -10 6 0 10 5 10 10 0 6 -4 10 -10 10 -5 0
-10 -4 -10 -10z"/>
<path d="M390 880 c-13 -8 -12 -10 3 -10 9 0 17 5 17 10 0 12 -1 12 -20 0z"/>
<path d="M1760 881 c0 -10 19 -25 25 -20 1 2 -3 10 -11 17 -8 7 -14 8 -14 3z"/>
<path d="M477 873 c-4 -3 -7 -11 -7 -17 0 -6 5 -5 12 2 6 6 9 14 7 17 -3 3 -9
2 -12 -2z"/>
<path d="M3870 849 c0 -6 -7 -8 -17 -4 -12 4 -15 3 -8 -4 12 -12 55 -3 55 10
0 5 -7 9 -15 9 -8 0 -15 -5 -15 -11z"/>
<path d="M3940 845 c0 -9 5 -15 11 -13 6 2 11 8 11 13 0 5 -5 11 -11 13 -6 2
-11 -4 -11 -13z"/>
<path d="M363 843 c9 -2 23 -2 30 0 6 3 -1 5 -18 5 -16 0 -22 -2 -12 -5z"/>
<path d="M1205 830 c-3 -6 1 -7 9 -4 18 7 21 14 7 14 -6 0 -13 -4 -16 -10z"/>
<path d="M3820 830 c0 -5 5 -10 11 -10 5 0 7 5 4 10 -3 6 -8 10 -11 10 -2 0
-4 -4 -4 -10z"/>
<path d="M3914 816 c0 -14 6 -22 14 -19 15 6 15 11 -2 28 -12 12 -14 11 -12
-9z"/>
<path d="M404 819 c-3 -5 3 -6 13 -2 14 5 14 2 -4 -16 -23 -22 -31 -37 -14
-26 5 3 11 0 14 -7 2 -8 3 -7 3 2 -1 8 8 24 21 35 l22 20 -24 1 c-14 1 -28 -2
-31 -7z"/>
<path d="M3960 800 c0 -5 5 -10 10 -10 6 0 10 5 10 10 0 6 -4 10 -10 10 -5 0
-10 -4 -10 -10z"/>
<path d="M1919 778 c0 -2 -2 -12 -4 -23 -2 -11 -9 -21 -14 -23 -6 -2 -11 -9
-11 -15 1 -7 9 -2 19 11 13 15 21 18 24 10 3 -8 6 -6 6 5 1 9 -4 17 -10 17 -5
0 -7 5 -4 10 3 6 4 10 1 10 -3 0 -6 -1 -7 -2z"/>
<path d="M3667 766 c-15 -12 -15 -14 -2 -19 9 -4 19 2 25 13 12 23 3 25 -23 6z"/>
<path d="M3920 760 c0 -11 4 -20 9 -20 5 0 7 9 4 20 -3 11 -7 20 -9 20 -2 0
-4 -9 -4 -20z"/>
<path d="M4041 767 c9 -7 14 -19 11 -27 -4 -12 -2 -12 8 -3 11 10 11 15 0 28
-7 8 -18 15 -24 15 -6 0 -4 -6 5 -13z"/>
<path d="M4070 773 c0 -4 5 -15 10 -23 8 -13 10 -13 10 2 0 9 -4 20 -10 23 -5
3 -10 3 -10 -2z"/>
<path d="M4216 759 c-17 -17 -18 -19 -3 -19 9 0 17 5 17 11 0 5 4 7 10 4 6 -3
7 1 4 9 -3 9 -7 16 -8 15 0 0 -10 -9 -20 -20z"/>
<path d="M1954 759 c-4 -7 -3 -9 4 -5 5 3 13 0 15 -6 4 -9 6 -10 6 -1 1 17
-16 25 -25 12z"/>
<path d="M4140 760 c0 -5 5 -10 10 -10 6 0 10 5 10 10 0 6 -4 10 -10 10 -5 0
-10 -4 -10 -10z"/>
<path d="M1355 749 c-4 -6 -5 -12 -2 -15 2 -3 7 2 10 11 7 17 1 20 -8 4z"/>
<path d="M1487 739 c3 -10 9 -16 14 -13 13 8 11 21 -5 27 -10 4 -12 0 -9 -14z"/>
<path d="M4112 735 c0 -16 2 -22 5 -12 2 9 2 23 0 30 -3 6 -5 -1 -5 -18z"/>
<path d="M2025 740 c3 -5 8 -10 11 -10 2 0 4 5 4 10 0 6 -5 10 -11 10 -5 0 -7
-4 -4 -10z"/>
<path d="M3705 730 c3 -5 8 -10 11 -10 2 0 4 5 4 10 0 6 -5 10 -11 10 -5 0 -7
-4 -4 -10z"/>
<path d="M1531 714 c0 -11 3 -14 6 -6 3 7 2 16 -1 19 -3 4 -6 -2 -5 -13z"/>
<path d="M3910 721 c0 -10 19 -25 25 -20 1 2 -3 10 -11 17 -8 7 -14 8 -14 3z"/>
<path d="M4222 710 c0 -14 2 -19 5 -12 2 6 2 18 0 25 -3 6 -5 1 -5 -13z"/>
<path d="M3848 713 c7 -3 16 -2 19 1 4 3 -2 6 -13 5 -11 0 -14 -3 -6 -6z"/>
<path d="M4141 704 c-1 -28 20 -46 39 -33 12 8 11 9 -4 7 -14 -2 -22 5 -27 22
-6 22 -7 23 -8 4z"/>
<path d="M1560 695 c-7 -8 -9 -15 -6 -15 4 0 14 7 22 15 9 8 11 15 6 15 -5 0
-15 -7 -22 -15z"/>
<path d="M1690 700 c-9 -6 -10 -10 -3 -10 6 0 15 5 18 10 8 12 4 12 -15 0z"/>
<path d="M3605 700 c-3 -5 -1 -10 4 -10 6 0 11 5 11 10 0 6 -2 10 -4 10 -3 0
-8 -4 -11 -10z"/>
<path d="M3670 700 c-9 -6 -10 -10 -3 -10 6 0 15 5 18 10 8 12 4 12 -15 0z"/>
<path d="M3891 694 c0 -11 3 -14 6 -6 3 7 2 16 -1 19 -3 4 -6 -2 -5 -13z"/>
<path d="M3566 684 c-9 -24 -7 -27 9 -10 17 17 19 26 6 26 -5 0 -12 -7 -15
-16z"/>
<path d="M4178 693 c7 -3 16 -2 19 1 4 3 -2 6 -13 5 -11 0 -14 -3 -6 -6z"/>
<path d="M1480 684 c0 -6 6 -17 14 -23 11 -9 15 -8 20 4 4 10 2 14 -5 9 -6 -4
-15 0 -20 7 -5 8 -9 9 -9 3z"/>
<path d="M4010 686 c0 -2 7 -7 16 -10 8 -3 12 -2 9 4 -6 10 -25 14 -25 6z"/>
<path d="M3677 669 c7 -7 15 -10 18 -7 3 3 -2 9 -12 12 -14 6 -15 5 -6 -5z"/>
<path d="M4087 661 c-4 -17 -3 -21 5 -13 5 5 8 16 6 23 -3 8 -7 3 -11 -10z"/>
<path d="M4228 673 c6 -2 18 -2 25 0 6 3 1 5 -13 5 -14 0 -19 -2 -12 -5z"/>
<path d="M3887 659 c7 -7 15 -10 18 -7 3 3 -2 9 -12 12 -14 6 -15 5 -6 -5z"/>
<path d="M3925 660 c-3 -5 -1 -10 4 -10 6 0 11 5 11 10 0 6 -2 10 -4 10 -3 0
-8 -4 -11 -10z"/>
<path d="M4170 644 c0 -8 5 -12 10 -9 6 3 10 10 10 16 0 5 -4 9 -10 9 -5 0
-10 -7 -10 -16z"/>
<path d="M4263 653 c4 -3 2 -12 -4 -20 -9 -9 -8 -13 0 -13 6 0 11 -7 11 -17 0
-29 14 -3 15 28 1 19 -4 29 -14 29 -8 0 -11 -3 -8 -7z"/>
<path d="M3730 641 c0 -6 4 -13 10 -16 6 -3 7 1 4 9 -7 18 -14 21 -14 7z"/>
<path d="M3836 637 c3 -10 9 -15 12 -12 3 3 0 11 -7 18 -10 9 -11 8 -5 -6z"/>
<path d="M3445 629 c-4 -6 -4 -13 -1 -16 3 -4 6 -1 6 6 0 7 5 9 12 5 7 -4 8
-3 4 4 -9 15 -13 15 -21 1z"/>
<path d="M3916 624 c-8 -20 -8 -24 2 -24 4 0 8 9 9 20 2 24 -3 26 -11 4z"/>
<path d="M4461 627 c-10 -13 -5 -77 7 -77 3 0 14 7 23 16 15 13 16 20 7 38 -6
11 -10 23 -9 26 6 12 -17 9 -28 -3z"/>
<path d="M1531 614 c0 -11 3 -14 6 -6 3 7 2 16 -1 19 -3 4 -6 -2 -5 -13z"/>
<path d="M3610 626 c0 -2 9 -6 20 -9 11 -3 18 -1 14 4 -5 9 -34 13 -34 5z"/>
<path d="M3986 615 c-3 -8 -1 -15 4 -15 6 0 10 7 10 15 0 8 -2 15 -4 15 -2 0
-6 -7 -10 -15z"/>
<path d="M3531 604 c0 -11 3 -14 6 -6 3 7 2 16 -1 19 -3 4 -6 -2 -5 -13z"/>
<path d="M1105 600 c3 -5 8 -10 11 -10 2 0 4 5 4 10 0 6 -5 10 -11 10 -5 0 -7
-4 -4 -10z"/>
<path d="M3731 588 c-1 -20 4 -28 15 -28 12 0 14 4 7 13 -6 6 -13 19 -16 27
-3 9 -6 3 -6 -12z"/>
<path d="M3755 600 c-4 -7 3 -8 22 -4 38 9 42 14 10 14 -14 0 -29 -5 -32 -10z"/>
<path d="M4230 594 c0 -8 5 -12 10 -9 6 3 10 10 10 16 0 5 -4 9 -10 9 -5 0
-10 -7 -10 -16z"/>
<path d="M1660 590 c-9 -6 -10 -10 -3 -10 6 0 15 5 18 10 8 12 4 12 -15 0z"/>
<path d="M4410 590 c0 -6 7 -10 15 -10 8 0 15 2 15 4 0 2 -7 6 -15 10 -8 3
-15 1 -15 -4z"/>
<path d="M4538 593 c7 -3 16 -2 19 1 4 3 -2 6 -13 5 -11 0 -14 -3 -6 -6z"/>
<path d="M1160 579 c0 -5 5 -7 10 -4 6 3 10 8 10 11 0 2 -4 4 -10 4 -5 0 -10
-5 -10 -11z"/>
<path d="M3430 580 c0 -5 5 -10 11 -10 5 0 7 5 4 10 -3 6 -8 10 -11 10 -2 0
-4 -4 -4 -10z"/>
<path d="M3917 575 c3 -8 9 -12 14 -9 12 7 11 11 -5 17 -10 4 -13 1 -9 -8z"/>
<path d="M4150 581 c0 -5 5 -13 10 -16 6 -3 10 -2 10 4 0 5 -4 13 -10 16 -5 3
-10 2 -10 -4z"/>
<path d="M1841 564 c0 -11 3 -14 6 -6 3 7 2 16 -1 19 -3 4 -6 -2 -5 -13z"/>
<path d="M4190 569 c0 -5 5 -7 10 -4 6 3 10 8 10 11 0 2 -4 4 -10 4 -5 0 -10
-5 -10 -11z"/>
<path d="M4240 556 c0 -8 4 -17 9 -20 5 -4 7 3 4 14 -6 23 -13 26 -13 6z"/>
<path d="M4376 561 c-3 -4 0 -13 5 -21 8 -12 12 -12 16 -2 2 6 9 10 14 6 5 -3
9 -1 9 4 0 12 -38 23 -44 13z"/>
<path d="M3460 550 c-12 -8 -12 -10 -1 -10 10 0 11 -3 3 -13 -9 -10 -3 -14 28
-15 25 -2 40 2 40 9 0 6 -8 9 -20 6 -20 -5 -45 15 -33 26 9 10 0 8 -17 -3z"/>
<path d="M3750 542 c0 -6 9 -12 20 -15 11 -3 20 -3 20 -1 0 2 -9 8 -20 14 -11
6 -20 7 -20 2z"/>
<path d="M3848 543 c7 -3 16 -2 19 1 4 3 -2 6 -13 5 -11 0 -14 -3 -6 -6z"/>
<path d="M4430 540 c0 -5 5 -10 10 -10 6 0 10 5 10 10 0 6 -4 10 -10 10 -5 0
-10 -4 -10 -10z"/>
<path d="M3188 533 c6 -2 18 -2 25 0 6 3 1 5 -13 5 -14 0 -19 -2 -12 -5z"/>
<path d="M3995 530 c3 -5 10 -10 16 -10 5 0 9 5 9 10 0 6 -7 10 -16 10 -8 0
-12 -4 -9 -10z"/>
<path d="M1406 517 c3 -10 9 -15 12 -12 3 3 0 11 -7 18 -10 9 -11 8 -5 -6z"/>
<path d="M4070 521 c0 -10 19 -25 25 -20 1 2 -3 10 -11 17 -8 7 -14 8 -14 3z"/>
<path d="M4220 519 c0 -5 5 -7 10 -4 6 3 10 8 10 11 0 2 -4 4 -10 4 -5 0 -10
-5 -10 -11z"/>
<path d="M4490 521 c0 -6 5 -13 12 -17 6 -4 8 -3 4 4 -3 5 0 13 6 15 8 3 6 6
-4 6 -10 1 -18 -3 -18 -8z"/>
<path d="M1310 510 c-9 -6 -10 -10 -3 -10 6 0 15 5 18 10 8 12 4 12 -15 0z"/>
<path d="M3560 516 c0 -2 13 -6 29 -8 17 -2 28 -1 25 4 -5 8 -54 12 -54 4z"/>
<path d="M4139 504 c-7 -9 -22 -19 -33 -23 -11 -4 -15 -10 -10 -14 5 -3 25 8
43 24 19 16 29 29 24 29 -6 0 -17 -7 -24 -16z"/>
<path d="M4185 500 c-3 -5 -1 -10 4 -10 6 0 11 5 11 10 0 6 -2 10 -4 10 -3 0
-8 -4 -11 -10z"/>
<path d="M4550 501 c0 -5 6 -11 14 -14 13 -5 11 -57 -3 -57 -4 0 -7 -9 -8 -20
-1 -11 2 -18 8 -15 5 4 9 13 9 21 0 9 5 12 12 8 6 -4 8 -3 5 4 -9 14 3 43 14
36 5 -3 9 -15 9 -27 0 -18 2 -19 10 -7 5 8 10 11 11 5 1 -5 5 6 9 25 5 20 5
39 -1 45 -5 5 -9 -1 -9 -18 0 -15 -4 -27 -10 -27 -10 0 -14 14 -11 38 1 7 -10
12 -29 12 -16 0 -30 -4 -30 -9z"/>
<path d="M3190 490 c0 -6 7 -10 15 -10 8 0 15 2 15 4 0 2 -7 6 -15 10 -8 3
-15 1 -15 -4z"/>
<path d="M3448 493 c7 -3 16 -2 19 1 4 3 -2 6 -13 5 -11 0 -14 -3 -6 -6z"/>
<path d="M4385 490 c3 -5 8 -10 11 -10 2 0 4 5 4 10 0 6 -5 10 -11 10 -5 0 -7
-4 -4 -10z"/>
<path d="M4516 485 c-3 -8 -1 -15 4 -15 13 0 22 18 11 24 -5 3 -11 -1 -15 -9z"/>
<path d="M3670 480 c20 -13 33 -13 25 0 -3 6 -14 10 -23 10 -15 0 -15 -2 -2
-10z"/>
<path d="M3340 470 c0 -5 5 -10 11 -10 5 0 7 5 4 10 -3 6 -8 10 -11 10 -2 0
-4 -4 -4 -10z"/>
<path d="M4190 470 c0 -5 5 -10 10 -10 6 0 10 5 10 10 0 6 -4 10 -10 10 -5 0
-10 -4 -10 -10z"/>
<path d="M3750 466 c0 -3 9 -10 20 -16 11 -6 20 -8 20 -6 0 3 -9 10 -20 16
-11 6 -20 8 -20 6z"/>
<path d="M4226 458 c3 -4 9 -8 15 -8 5 0 9 4 9 8 0 5 -7 9 -15 9 -8 0 -12 -4
-9 -9z"/>
<path d="M4278 463 c7 -3 16 -2 19 1 4 3 -2 6 -13 5 -11 0 -14 -3 -6 -6z"/>
<path d="M4535 461 c-3 -6 -3 -11 2 -11 4 0 1 -5 -7 -10 -10 -7 -11 -10 -2
-10 7 0 15 7 19 15 7 19 -2 31 -12 16z"/>
<path d="M3620 450 c8 -6 24 -15 35 -21 16 -8 15 -6 -4 10 -13 12 -28 21 -35
21 -6 0 -4 -5 4 -10z"/>
<path d="M4000 450 c8 -5 20 -10 25 -10 6 0 3 5 -5 10 -8 5 -19 10 -25 10 -5
0 -3 -5 5 -10z"/>
<path d="M4118 453 c-10 -2 -18 -9 -18 -14 0 -6 8 -5 20 1 11 6 20 13 20 15 0
3 -1 4 -2 4 -2 -1 -11 -3 -20 -6z"/>
<path d="M4460 452 c0 -5 6 -17 14 -28 13 -16 17 -17 28 -5 11 12 10 13 -5 8
-15 -6 -17 -3 -12 13 5 14 2 20 -9 20 -9 0 -16 -4 -16 -8z"/>
<path d="M1616 442 c-2 -4 4 -8 15 -8 10 0 19 4 19 8 0 4 -6 8 -14 8 -8 0 -17
-4 -20 -8z"/>
<path d="M4402 443 c-28 -4 -33 -8 -29 -24 3 -10 2 -19 -3 -19 -4 0 -10 -11
-12 -25 -3 -14 -1 -22 5 -18 5 3 7 -4 3 -18 -3 -13 -3 -19 -1 -13 3 6 20 9 38
7 l32 -3 -28 11 -27 11 21 17 c19 15 20 18 5 30 -24 20 -19 34 9 27 18 -5 25
-2 25 9 0 8 -1 14 -2 13 -2 0 -18 -3 -36 -5z m-12 -63 c0 -5 -4 -10 -10 -10
-5 0 -10 5 -10 10 0 6 5 10 10 10 6 0 10 -4 10 -10z"/>
<path d="M3148 423 c7 -3 16 -2 19 1 4 3 -2 6 -13 5 -11 0 -14 -3 -6 -6z"/>
<path d="M3520 422 c0 -5 7 -15 15 -22 8 -7 15 -9 15 -6 0 4 -7 14 -15 22 -8
9 -15 11 -15 6z"/>
<path d="M4215 420 c-3 -5 -1 -10 4 -10 6 0 11 5 11 10 0 6 -2 10 -4 10 -3 0
-8 -4 -11 -10z"/>
<path d="M4336 413 c-6 -14 -9 -15 -15 -4 -6 8 -11 9 -15 3 -3 -6 -2 -13 3
-16 14 -9 41 4 41 20 0 19 -6 18 -14 -3z"/>
<path d="M3840 411 c0 -5 7 -12 16 -15 14 -5 15 -4 4 9 -14 17 -20 19 -20 6z"/>
<path d="M4086 405 c-3 -8 -1 -15 4 -15 6 0 10 7 10 15 0 8 -2 15 -4 15 -2 0
-6 -7 -10 -15z"/>
<path d="M4520 410 c0 -5 5 -10 11 -10 5 0 7 5 4 10 -3 6 -8 10 -11 10 -2 0
-4 -4 -4 -10z"/>
<path d="M1760 399 c0 -5 5 -7 10 -4 6 3 10 8 10 11 0 2 -4 4 -10 4 -5 0 -10
-5 -10 -11z"/>
<path d="M1596 373 c-6 -14 -5 -15 5 -6 7 7 10 15 7 18 -3 3 -9 -2 -12 -12z"/>
<path d="M3640 369 c0 -11 -4 -17 -10 -14 -5 3 -10 2 -10 -3 0 -5 8 -12 18
-16 9 -3 24 -9 32 -12 12 -5 13 -4 3 7 -7 7 -13 23 -13 36 0 13 -4 23 -10 23
-5 0 -10 -9 -10 -21z"/>
<path d="M4431 374 c0 -11 3 -14 6 -6 3 7 2 16 -1 19 -3 4 -6 -2 -5 -13z"/>
<path d="M4270 371 c0 -12 -49 -20 -56 -10 -3 5 -13 9 -22 9 -11 0 -6 -6 12
-15 15 -8 39 -15 52 -15 13 0 24 -5 24 -11 0 -6 -9 -9 -20 -6 -13 3 -20 0 -20
-9 0 -8 -3 -14 -7 -15 -5 0 -18 -2 -31 -3 -16 -2 -21 1 -18 11 3 8 1 11 -4 8
-6 -3 -8 -18 -5 -33 5 -26 5 -26 -5 -4 -10 25 -30 21 -30 -5 0 -13 -3 -13 -16
-2 -13 11 -17 10 -26 -4 -5 -10 -14 -14 -20 -11 -6 4 -8 3 -5 -3 8 -13 -20
-39 -30 -29 -4 4 -2 11 6 15 16 10 13 22 -8 38 -31 24 -44 8 -17 -20 13 -12
13 -18 2 -32 -19 -26 -9 -52 25 -64 23 -8 29 -7 29 5 0 7 -4 14 -10 14 -17 0
-11 26 10 45 17 16 20 16 20 2 0 -8 8 -18 18 -20 13 -4 12 -5 -5 -6 -12 0 -23
4 -25 11 -3 9 -6 9 -11 1 -9 -14 19 -43 41 -43 15 0 15 2 2 10 -13 8 -12 10 3
10 10 0 17 8 17 20 0 11 5 20 11 20 5 0 7 5 4 10 -3 5 -1 10 4 10 6 0 11 -8
12 -17 0 -15 2 -15 9 2 7 18 8 19 15 3 4 -10 11 -18 16 -18 5 0 9 8 9 18 0 13
2 14 9 4 7 -11 11 -11 24 2 8 9 20 16 26 16 6 0 11 5 11 11 0 5 -6 7 -12 3 -9
-5 -10 -4 -3 4 6 5 19 12 30 15 14 3 12 5 -10 6 l-30 2 25 11 c15 6 20 12 13
15 -24 9 -14 33 14 33 33 0 28 5 -14 13 -18 4 -33 3 -33 -2z m-10 -80 c0 -6
-4 -13 -10 -16 -5 -3 -10 1 -10 9 0 9 5 16 10 16 6 0 10 -4 10 -9z m-41 -23
c-12 -23 -15 -23 -21 0 -4 12 1 18 13 18 14 0 15 -4 8 -18z"/>
<path d="M4506 370 c-11 -3 -15 -9 -10 -13 10 -6 42 9 34 16 -3 3 -14 1 -24
-3z"/>
<path d="M1653 363 c-15 -5 -18 -33 -4 -33 8 0 25 30 19 35 -2 1 -9 0 -15 -2z"/>
<path d="M1710 359 c0 -5 5 -7 10 -4 6 3 10 8 10 11 0 2 -4 4 -10 4 -5 0 -10
-5 -10 -11z"/>
<path d="M4591 354 c0 -11 3 -14 6 -6 3 7 2 16 -1 19 -3 4 -6 -2 -5 -13z"/>
<path d="M3316 348 c3 -5 -5 -6 -18 -3 -17 4 -29 1 -39 -11 -12 -16 -12 -17 3
-11 10 3 20 2 23 -3 3 -5 -3 -11 -12 -13 -17 -4 -17 -5 0 -6 9 0 17 -5 17 -9
0 -5 7 -9 15 -9 16 0 20 12 8 20 -5 2 -3 2 4 1 6 -2 14 2 17 9 3 9 5 9 5 0 2
-21 21 -15 21 7 0 14 -5 18 -17 14 -15 -5 -15 -4 -3 4 10 8 19 7 29 -1 11 -10
13 -9 9 3 -3 9 -18 15 -36 16 -17 1 -29 -3 -26 -8z"/>
<path d="M4060 340 c0 -6 7 -10 15 -10 8 0 15 2 15 4 0 2 -7 6 -15 10 -8 3
-15 1 -15 -4z"/>
<path d="M3590 317 c-20 -8 -22 -11 -8 -14 20 -5 55 12 42 19 -5 3 -20 1 -34
-5z"/>
<path d="M4556 317 c3 -10 9 -15 12 -12 3 3 0 11 -7 18 -10 9 -11 8 -5 -6z"/>
<path d="M3690 310 c0 -6 7 -10 15 -10 8 0 15 2 15 4 0 2 -7 6 -15 10 -8 3
-15 1 -15 -4z"/>
<path d="M3753 305 c-7 -19 -10 -16 49 -43 60 -28 76 -28 24 -1 -21 11 -41 29
-43 40 -6 23 -21 25 -30 4z"/>
<path d="M1786 284 c-8 -22 -8 -52 2 -57 4 -3 7 13 7 34 1 43 0 46 -9 23z"/>
<path d="M3246 287 c2 -7 -9 -43 -25 -80 -17 -37 -27 -67 -23 -67 4 0 15 18
25 40 15 33 23 39 48 38 38 -1 54 -20 39 -48 -6 -11 -8 -26 -4 -32 4 -6 3 -8
-3 -5 -6 4 -14 0 -17 -9 -10 -26 -7 -28 14 -9 11 10 20 27 20 37 0 10 7 33 17
51 22 44 27 87 8 87 -8 0 -19 -8 -24 -17 -6 -11 -11 -13 -11 -5 0 7 -5 10 -10
7 -6 -4 -22 0 -35 9 -18 12 -23 12 -19 3z m80 -49 c6 -1 9 -10 6 -22 -5 -18
-7 -18 -10 -3 -3 15 -20 22 -44 18 -5 0 -8 4 -8 10 0 7 8 9 23 4 12 -3 27 -7
33 -7z"/>
<path d="M3392 228 c-45 -97 -73 -160 -88 -195 -14 -33 -14 -33 15 -33 26 0
33 7 56 58 16 33 28 77 29 103 1 45 18 79 38 79 6 0 7 -12 4 -27 -6 -25 -5
-26 7 -10 22 27 38 22 27 -8 -6 -15 -6 -25 0 -25 5 0 12 9 15 20 9 27 27 14
20 -13 -6 -20 -5 -21 8 -4 20 24 30 21 23 -8 -4 -14 -2 -25 4 -25 5 0 10 7 10
15 0 8 7 15 15 15 18 0 19 -2 1 -45 -8 -19 -20 -35 -25 -35 -12 0 -41 -52 -41
-75 0 -10 9 -15 28 -15 26 0 32 8 76 97 l47 98 -48 22 c-26 13 -54 23 -61 23
-7 0 -34 11 -60 25 -26 14 -52 25 -59 25 -6 0 -25 -28 -41 -62z"/>
<path d="M1805 259 c-4 -6 -5 -12 -2 -15 2 -3 7 2 10 11 7 17 1 20 -8 4z"/>
<path d="M1392 240 c0 -14 2 -19 5 -12 2 6 2 18 0 25 -3 6 -5 1 -5 -13z"/>
<path d="M3760 240 c0 -5 6 -10 13 -10 8 0 7 -4 -3 -11 -13 -9 -13 -10 0 -6
21 5 26 37 6 37 -9 0 -16 -4 -16 -10z"/>
<path d="M4525 220 c3 -5 8 -10 11 -10 2 0 4 5 4 10 0 6 -5 10 -11 10 -5 0 -7
-4 -4 -10z"/>
<path d="M3887 201 c7 -12 -23 -31 -51 -32 -29 0 -30 -1 -8 -10 16 -6 31 -5
45 3 12 7 25 12 29 13 3 0 9 3 12 8 3 4 3 5 -1 2 -3 -3 -11 1 -17 8 -6 7 -10
10 -9 8z"/>
<path d="M3740 190 c8 -5 20 -10 25 -10 6 0 3 5 -5 10 -8 5 -19 10 -25 10 -5
0 -3 -5 5 -10z"/>
<path d="M3996 171 c-4 -7 -5 -15 -2 -18 9 -9 19 4 14 18 -4 11 -6 11 -12 0z"/>
<path d="M3190 120 c0 -5 -7 -7 -15 -4 -11 5 -13 2 -9 -11 5 -12 0 -23 -16
-35 -21 -16 -36 -70 -20 -70 7 0 24 32 35 65 5 16 8 17 15 5 6 -8 10 -10 11
-5 0 6 2 22 4 38 2 15 2 27 -1 27 -2 0 -4 -4 -4 -10z"/>
<path d="M3996 115 c-9 -26 -7 -32 5 -12 6 10 9 21 6 23 -2 3 -7 -2 -11 -11z"/>
<path d="M3143 95 c0 -8 4 -12 9 -9 5 3 6 10 3 15 -9 13 -12 11 -12 -6z"/>
<path d="M3262 88 c2 -8 -6 -12 -22 -11 l-25 3 24 -10 c16 -7 20 -14 14 -23
-14 -18 -24 -47 -15 -47 7 0 35 55 38 77 1 7 -2 16 -7 19 -5 3 -8 0 -7 -8z"/>
<path d="M3446 83 c-4 -9 -2 -20 4 -25 5 -4 8 -5 5 -2 -2 4 0 15 6 25 6 11 6
19 0 19 -5 0 -12 -8 -15 -17z"/>
<path d="M4370 90 c-8 -5 -12 -12 -9 -15 4 -3 12 1 19 10 14 17 11 19 -10 5z"/>
<path d="M1572 70 c0 -14 2 -19 5 -12 2 6 2 18 0 25 -3 6 -5 1 -5 -13z"/>
<path d="M3980 67 c0 -17 -39 -49 -50 -42 -6 3 -7 -1 -4 -9 8 -20 11 -20 42 5
16 12 28 16 30 10 4 -13 32 -15 32 -3 0 5 -11 18 -25 30 -15 14 -25 17 -25 9z"/>
<path d="M3654 59 c-3 -5 7 -9 22 -9 15 0 24 3 20 7 -11 11 -35 12 -42 2z"/>
<path d="M4437 55 c-14 -10 -15 -14 -3 -18 8 -3 17 1 20 10 9 22 4 24 -17 8z"/>
<path d="M2751 34 c0 -11 3 -14 6 -6 3 7 2 16 -1 19 -3 4 -6 -2 -5 -13z"/>
<path d="M4127 31 c-23 -15 -25 -20 -12 -25 27 -10 35 -7 28 11 -5 12 -2 15
10 10 11 -4 14 -2 10 9 -3 7 -6 14 -7 13 0 0 -14 -9 -29 -18z"/>
<path d="M4177 29 c4 -13 8 -18 11 -10 2 7 -1 18 -6 23 -8 8 -9 4 -5 -13z"/>
<path d="M4218 43 c7 -3 16 -2 19 1 4 3 -2 6 -13 5 -11 0 -14 -3 -6 -6z"/>
<path d="M4299 39 c-12 -7 -12 -9 0 -9 8 0 19 -7 26 -17 7 -9 14 -12 17 -7 8
15 -28 43 -43 33z"/>
<path d="M3640 30 c0 -5 5 -10 10 -10 6 0 10 5 10 10 0 6 -4 10 -10 10 -5 0
-10 -4 -10 -10z"/>
<path d="M4380 16 c0 -8 9 -14 19 -13 15 1 17 4 9 14 -14 17 -28 16 -28 -1z"/>
<path d="M3990 8 c0 -4 14 -8 30 -8 17 0 30 2 30 4 0 2 -13 6 -30 8 -16 3 -30
1 -30 -4z"/>
</g>
</svg>
